<?xml version="1.0" standalone="no"?>
<!DOCTYPE svg PUBLIC "-//W3C//DTD SVG 20010904//EN"
 "http://www.w3.org/TR/2001/REC-SVG-20010904/DTD/svg10.dtd">
<svg version="1.0" xmlns="http://www.w3.org/2000/svg"
 width="370.000000pt" height="370.000000pt" viewBox="0 0 370.000000 370.000000"
 preserveAspectRatio="xMidYMid meet">

<g transform="translate(0.000000,370.000000) scale(0.100000,-0.100000)"
fill="#000000" stroke="none">
<path d="M1914 3198 c-87 -152 -450 -815 -526 -960 l-46 -86 26 -7 c15 -4 116
-3 225 1 l197 7 69 121 c38 66 83 150 101 185 l32 65 19 -25 c10 -13 44 -71
75 -129 32 -58 73 -134 92 -168 l35 -64 213 4 c117 1 215 6 219 9 8 9 -57 139
-203 404 -177 324 -439 785 -446 785 0 0 -38 -64 -82 -142z"/>
<path d="M772 3019 c-198 -53 -353 -165 -459 -332 -13 -20 -41 -72 -63 -115
-51 -102 -64 -184 -58 -372 5 -129 8 -153 33 -215 48 -118 105 -205 195 -295
75 -75 101 -93 215 -152 l130 -66 440 -11 c242 -7 467 -16 499 -22 119 -21
211 -93 263 -204 24 -51 28 -72 28 -145 -2 -190 -105 -314 -305 -365 l-45 -11
-3 -212 -2 -212 22 0 c63 1 202 43 298 91 93 45 116 63 201 148 86 87 102 109
153 211 65 131 76 182 76 345 -1 248 -46 365 -209 537 -80 85 -157 141 -277
201 l-91 46 -494 11 -494 11 -40 26 c-76 50 -142 121 -171 186 -25 54 -29 74
-29 152 1 76 5 99 27 147 47 101 142 175 263 205 l65 16 0 208 0 209 -47 -1
c-27 0 -81 -9 -121 -20z"/>
<path d="M830 1153 c-38 -7 -42 -14 -123 -156 -153 -271 -169 -304 -151 -311
8 -3 109 -6 224 -6 l209 0 70 128 c132 242 176 330 168 339 -9 9 -356 14 -397
6z"/>
<path d="M2802 1152 l-42 -7 93 -170 c121 -220 154 -273 175 -279 55 -15 114
-17 263 -11 l166 7 -119 222 c-66 121 -122 224 -126 227 -10 10 -359 18 -410
11z"/>
</g>
</svg>
